<svg xmlns="http://www.w3.org/2000/svg" width="1280" height="640" viewBox="0 0 1280 640">
  <defs><linearGradient id="bg" x1="0" y1="0" x2="0" y2="1"><stop offset="0" stop-color="#262B3D"/><stop offset="1" stop-color="#171A26"/></linearGradient></defs>
  <rect width="1280" height="640" fill="url(#bg)"/>
  <g transform="translate(525.0,70) scale(0.4492)"><g transform="translate(37.6,14.5) scale(1.05)">
  <circle cx="92" cy="128" r="18" fill="#14B8A6"/>
  <circle cx="324" cy="128" r="18" fill="#14B8A6"/>
  <path d="M 74 154 H 110 V 314 H 128 V 332 H 56 V 314 H 74 Z" fill="#14B8A6"/>
  <path d="M 306 154 H 342 V 314 H 360 V 332 H 288 V 314 H 306 Z" fill="#14B8A6"/>
  <path d="M 16 240 C 100 160, 194 144, 400 240" fill="none" stroke="#636AF1" stroke-width="18" stroke-linecap="round"/>
  <circle cx="208" cy="171" r="15" fill="#FFC107"/>
  <path d="M 124 302 C 164 296, 196 302, 218 324 C 240 302, 272 296, 312 302" fill="none" stroke="#E8EBF5" stroke-width="13" stroke-linecap="round" stroke-linejoin="round"/>
  <path d="M 122 334 C 166 328, 198 334, 218 350 C 238 334, 270 328, 314 334" fill="none" stroke="#E8EBF5" stroke-width="13" stroke-linecap="round" stroke-linejoin="round"/>
  </g></g>
  <path d="M320.98287200927734 382.15625V452.0H304.45277404785156V382.15625ZM348.40474700927734 382.15625V452.0H331.87464904785156V382.15625ZM385.9140396118164 427.0924606323242H399.32784271240234L405.2565689086914 434.60367584228516L412.5691375732422 443.02249908447266L424.26538848876953 457.49373626708984H409.28406524658203L401.1203079223633 447.7024917602539L396.4440231323242 440.94493865966797ZM390.9578170776367 452.9375Q381.57718658447266 452.9375 374.0349922180176 448.7618770599365Q366.4927978515625 444.58625411987305 362.1052932739258 436.5828170776367Q357.71778869628906 428.5793800354004 357.71778869628906 417.125Q357.71778869628906 405.58811950683594 362.1052932739258 397.5668697357178Q366.4927978515625 389.5456199645996 374.0349922180176 385.3821849822998Q381.57718658447266 381.21875 390.9578170776367 381.21875Q400.3384475708008 381.21875 407.85720443725586 385.3821849822998Q415.37596130371094 389.5456199645996 419.7756538391113 397.5668697357178Q424.1753463745117 405.58811950683594 424.1753463745117 417.125Q424.1753463745117 428.61500549316406 419.7756538391113 436.6184425354004Q415.37596130371094 444.6218795776367 407.85720443725586 448.77968978881836Q400.3384475708008 452.9375 390.9578170776367 452.9375ZM390.9578170776367 438.41741943359375Q396.0521774291992 438.41741943359375 399.701847076416 435.9658660888672Q403.3515167236328 433.5143127441406 405.31275367736816 428.75745582580566Q407.2739906311035 424.0005989074707 407.2739906311035 417.125Q407.2739906311035 410.19127655029297 405.31275367736816 405.4166069030762Q403.3515167236328 400.6419372558594 399.701847076416 398.1903839111328Q396.0521774291992 395.73883056640625 390.9578170776367 395.73883056640625Q385.88783264160156 395.73883056640625 382.2325382232666 398.196008682251Q378.57724380493164 400.6531867980957 376.59819412231445 405.4278564453125Q374.61914443969727 410.2025260925293 374.61914443969727 417.125Q374.61914443969727 424.0005989074707 376.59819412231445 428.7518310546875Q378.57724380493164 433.5030632019043 382.2325382232666 435.960241317749Q385.88783264160156 438.41741943359375 390.9578170776367 438.41741943359375Z" fill="#14B8A6"/>
  <path d="M491.23749828338623 452.9375Q482.17469024658203 452.9375 475.05719470977783 448.6395297050476Q467.93969917297363 444.3415594100952 463.8559522628784 436.31093406677246Q459.7722053527832 428.2803087234497 459.7722053527832 417.125Q459.7722053527832 405.91437911987305 463.8686079978943 397.87953519821167Q467.96501064300537 389.8446912765503 475.0867247581482 385.53172063827515Q482.208438873291 381.21875 491.23749828338623 381.21875Q496.75373935699463 381.21875 501.6081085205078 382.8035922050476Q506.462477684021 384.3884344100952 510.2884120941162 387.4367127418518Q514.1143465042114 390.4849910736084 516.6348147392273 394.84951734542847Q519.1552829742432 399.21404361724854 520.0421600341797 404.77341175079346H509.27973556518555Q508.614107131958 401.4087142944336 506.9697256088257 398.85027027130127Q505.32534408569336 396.29182624816895 502.92205476760864 394.5180721282959Q500.5187654495239 392.74431800842285 497.56797647476196 391.8490037918091Q494.6171875 390.9536895751953 491.3387441635132 390.9536895751953Q485.3359203338623 390.9536895751953 480.58981370925903 393.98510217666626Q475.84370708465576 397.0165147781372 473.1183853149414 402.8515281677246Q470.39306354522705 408.686541557312 470.39306354522705 417.125Q470.39306354522705 425.5756435394287 473.14604139328003 431.4064383506775Q475.899019241333 437.23723316192627 480.63668870925903 440.2198967933655Q485.37435817718506 443.2025604248047 491.3218698501587 443.2025604248047Q494.6003131866455 443.2025604248047 497.54688358306885 442.28802728652954Q500.4934539794922 441.3734941482544 502.90518045425415 439.6189589500427Q505.3169069290161 437.86442375183105 506.9697256088257 435.28676080703735Q508.62254428863525 432.70909786224365 509.29660987854004 429.38283824920654H520.0590343475342Q519.2696552276611 434.56628227233887 516.8293399810791 438.8609666824341Q514.3890247344971 443.1556510925293 510.60105752944946 446.3243942260742Q506.81309032440186 449.49313735961914 501.9080982208252 451.21531867980957Q497.00310611724854 452.9375 491.23749828338623 452.9375ZM553.8690528869629 453.091251373291Q546.4909381866455 453.091251373291 540.9929747581482 449.7120327949524Q535.4950113296509 446.33281421661377 532.4570441246033 440.2432827949524Q529.4190769195557 434.153751373291 529.4190769195557 426.091251373291Q529.4190769195557 417.91343784332275 532.4570441246033 411.8046875Q535.4950113296509 405.69593715667725 540.9929747581482 402.3167185783386Q546.4909381866455 398.9375 553.8690528869629 398.9375Q561.285605430603 398.9375 566.7943506240845 402.3167185783386Q572.3030958175659 405.69593715667725 575.3410630226135 411.8046875Q578.3790302276611 417.91343784332275 578.3790302276611 426.091251373291Q578.3790302276611 434.153751373291 575.3410630226135 440.2432827949524Q572.3030958175659 446.33281421661377 566.7943506240845 449.7120327949524Q561.285605430603 453.091251373291 553.8690528869629 453.091251373291ZM553.8690528869629 444.3716115951538Q558.6512613296509 444.3716115951538 561.7736172676086 441.86379051208496Q564.8959732055664 439.3559694290161 566.4100408554077 435.196270942688Q567.924108505249 431.03657245635986 567.924108505249 426.0743770599365Q567.924108505249 421.0653066635132 566.4100408554077 416.8798260688782Q564.8959732055664 412.69434547424316 561.7736172676086 410.1757426261902Q558.6512613296509 407.6571397781372 553.8690528869629 407.6571397781372Q549.1168451309204 407.6571397781372 546.0287084579468 410.1757426261902Q542.9405717849731 412.69434547424316 541.4265041351318 416.8606071472168Q539.9124364852905 421.02686882019043 539.9124364852905 426.0743770599365Q539.9124364852905 431.03657245635986 541.4265041351318 435.196270942688Q542.9405717849731 439.3559694290161 546.0287084579468 441.86379051208496Q549.1168451309204 444.3716115951538 553.8690528869629 444.3716115951538ZM589.8165817260742 452.0V399.59375H599.6396408081055L599.8974447250366 411.7512321472168H599.1230745315552Q600.2349481582642 407.29155254364014 602.5763535499573 404.4181184768677Q604.9177589416504 401.5446844100952 608.0602579116821 400.12577867507935Q611.2027568817139 398.7068729400635 614.6199426651001 398.7068729400635Q620.3133811950684 398.7068729400635 623.8313508033752 402.2478094100952Q627.3493204116821 405.78874588012695 628.583062171936 412.0980968475342H627.2893190383911Q628.3027534484863 407.78936195373535 630.846188545227 404.79921102523804Q633.3896236419678 401.8090600967407 636.9539976119995 400.2579665184021Q640.5183715820312 398.7068729400635 644.6396236419678 398.7068729400635Q649.2708702087402 398.7068729400635 653.0293073654175 400.7178087234497Q656.7877445220947 402.72874450683594 658.9974327087402 406.7089009284973Q661.2071208953857 410.6890573501587 661.2071208953857 416.65625V452.0H650.8965721130371V417.70902919769287Q650.8965721130371 412.4421377182007 647.9706239700317 410.09322786331177Q645.0446758270264 407.74431800842285 641.0621662139893 407.74431800842285Q637.8334045410156 407.74431800842285 635.4812088012695 409.1154160499573Q633.1290130615234 410.4865140914917 631.8601021766663 412.89167737960815Q630.5911912918091 415.2968406677246 630.5911912918091 418.4393482208252V452.0H620.4325113296509V417.0171480178833Q620.4325113296509 412.8265161514282 617.737190246582 410.28541707992554Q615.0418691635132 407.74431800842285 610.8671703338623 407.74431800842285Q608.014349937439 407.74431800842285 605.5510592460632 409.0769782066345Q603.0877685546875 410.4096384048462 601.6074495315552 413.0069909095764Q600.1271305084229 415.60434341430664 600.1271305084229 419.4387321472168V452.0ZM675.0822067260742 452.0V399.59375H684.9052658081055L685.1630697250366 411.7512321472168H684.3886995315552Q685.5005731582642 407.29155254364014 687.8419785499573 404.4181184768677Q690.1833839416504 401.5446844100952 693.3258829116821 400.12577867507935Q696.4683818817139 398.7068729400635 699.8855676651001 398.7068729400635Q705.5790061950684 398.7068729400635 709.0969758033752 402.2478094100952Q712.6149454116821 405.78874588012695 713.848687171936 412.0980968475342H712.5549440383911Q713.5683784484863 407.78936195373535 716.111813545227 404.79921102523804Q718.6552486419678 401.8090600967407 722.2196226119995 400.2579665184021Q725.7839965820312 398.7068729400635 729.9052486419678 398.7068729400635Q734.5364952087402 398.7068729400635 738.2949323654175 400.7178087234497Q742.0533695220947 402.72874450683594 744.2630577087402 406.7089009284973Q746.4727458953857 410.6890573501587 746.4727458953857 416.65625V452.0H736.1621971130371V417.70902919769287Q736.1621971130371 412.4421377182007 733.2362489700317 410.09322786331177Q730.3103008270264 407.74431800842285 726.3277912139893 407.74431800842285Q723.0990295410156 407.74431800842285 720.7468338012695 409.1154160499573Q718.3946380615234 410.4865140914917 717.1257271766663 412.89167737960815Q715.8568162918091 415.2968406677246 715.8568162918091 418.4393482208252V452.0H705.6981363296509V417.0171480178833Q705.6981363296509 412.8265161514282 703.002815246582 410.28541707992554Q700.3074941635132 407.74431800842285 696.1327953338623 407.74431800842285Q693.279974937439 407.74431800842285 690.8166842460632 409.0769782066345Q688.3533935546875 410.4096384048462 686.8730745315552 413.0069909095764Q685.3927555084229 415.60434341430664 685.3927555084229 419.4387321472168V452.0ZM778.2062654495239 452.65625Q772.8672046661377 452.65625 768.8382992744446 450.41328382492065Q764.8093938827515 448.1703176498413 762.5786128044128 443.75563049316406Q760.3478317260742 439.3409433364868 760.3478317260742 432.8918743133545V399.59375H770.6583805084229V431.6065855026245Q770.6583805084229 437.2653512954712 773.6265144348145 440.4720788002014Q776.594648361206 443.67880630493164 781.733099937439 443.67880630493164Q785.2299852371216 443.67880630493164 787.9745259284973 442.15208292007446Q790.719066619873 440.6253595352173 792.3100099563599 437.69331884384155Q793.9009532928467 434.7612781524658 793.9009532928467 430.64563941955566V399.59375H804.2499399185181V452.0H794.3809471130371L794.3134498596191 439.1703176498413H795.3372039794922Q793.0178241729736 446.2765779495239 788.6256332397461 449.46641397476196Q784.2334423065186 452.65625 778.2062654495239 452.65625ZM828.4083805084229 420.94811058044434V452.0H818.0978317260742V399.59375H827.9283866882324L828.0343217849731 412.4234323501587H826.9721298217773Q829.2530717849731 405.3940477371216 833.6068248748779 402.1657738685608Q837.9605779647827 398.9375 844.1415061950684 398.9375Q849.4890041351318 398.9375 853.494472026825 401.18046617507935Q857.4999399185181 403.4234323501587 859.7307209968567 407.81890058517456Q861.9615020751953 412.21436882019043 861.9615020751953 418.7018756866455V452.0H851.6509532928467V419.9871644973755Q851.6509532928467 414.3283987045288 848.7020382881165 411.1216711997986Q845.7531232833862 407.91494369506836 840.6146717071533 407.91494369506836Q837.126223564148 407.91494369506836 834.3582453727722 409.44166707992554Q831.5902671813965 410.9683904647827 829.9993238449097 413.87699365615845Q828.4083805084229 416.7855968475342 828.4083805084229 420.94811058044434ZM875.8478317260742 452.0V399.59375H886.1583805084229V452.0ZM881.033106803894 391.59778881073Q878.3809299468994 391.59778881073 876.4693746566772 389.79640851782625Q874.5578193664551 387.9950282249225 874.5578193664551 385.4730958148573Q874.5578193664551 382.89969539642334 876.4693746566772 381.12220191955566Q878.3809299468994 379.344708442688 881.033106803894 379.344708442688Q883.7213108880179 379.344708442688 885.6340714863368 381.1212979384831Q887.5468320846558 382.89788743427823 887.5468320846558 385.4726548194885Q887.5468320846558 387.99592685699463 885.6340714863368 389.7968578338623Q883.7213108880179 391.59778881073 881.033106803894 391.59778881073ZM922.4658832550049 399.59375V407.97682762145996H894.0390625V399.59375ZM901.6946964263916 387.125H912.0052452087402V437.82408618927Q912.0052452087402 441.0022249221802 913.3294682502747 442.475980758667Q914.6536912918091 443.9497365951538 917.7202644348145 443.9497365951538Q918.5255765914917 443.9497365951538 919.8352613449097 443.7580180168152Q921.1449460983276 443.56629943847656 922.0833873748779 443.37879943847656L923.9105710983276 451.6428155899048Q922.2521476745605 452.1875 920.3729376792908 452.43453073501587Q918.493727684021 452.68156147003174 916.6927967071533 452.68156147003174Q909.5331239700317 452.68156147003174 905.6139101982117 449.0154709815979Q901.6946964263916 445.34938049316406 901.6946964263916 438.6743907928467ZM932.0237627029419 470.8409433364868 934.5343732833862 462.4316129684448 935.7034244537354 462.74192237854004Q938.3743581771851 463.4234838485718 940.5090446472168 463.11035919189453Q942.6437311172485 462.7972345352173 944.2131109237671 461.1256675720215Q945.7824907302856 459.4541006088257 946.719066619873 456.08377265930176L947.8562688827515 452.23906421661377L927.9503269195557 399.59375H939.083062171936L949.4546566009521 429.38099002838135Q951.1852836608887 434.34879875183105 952.3323178291321 439.2523875236511Q953.4793519973755 444.1559762954712 954.8134155273438 449.02721118927H951.660605430603Q952.9946689605713 444.1559762954712 954.2410750389099 439.2247314453125Q955.4874811172485 434.2934865951538 957.204981803894 429.38099002838135L967.7800092697144 399.59375H978.8236837387085L956.0611734390259 459.279709815979Q954.4674234390259 463.4684591293335 952.1522707939148 466.29876613616943Q949.8371181488037 469.12907314300537 946.635097026825 470.5489115715027Q943.4330759048462 471.96875 939.2068471908569 471.96875Q936.7796669006348 471.96875 934.8690528869629 471.61531352996826Q932.958438873291 471.2618770599365 932.0237627029419 470.8409433364868Z" fill="#FFFFFF"/>
  <path d="M350.9375 510.3125Q347.953125 510.3125 345.6171875 508.8671875Q343.28125 507.421875 341.9375 504.7421875Q340.59375 502.0625 340.59375 498.375Q340.59375 494.671875 341.9375 491.9921875Q343.28125 489.3125 345.6171875 487.859375Q347.953125 486.40625 350.9375 486.40625Q353.921875 486.40625 356.25 487.859375Q358.578125 489.3125 359.9140625 491.9921875Q361.25 494.671875 361.25 498.375Q361.25 502.0625 359.9140625 504.7421875Q358.578125 507.421875 356.25 508.8671875Q353.921875 510.3125 350.9375 510.3125ZM350.9375 507.5625Q353.015625 507.5625 354.6953125 506.5078125Q356.375 505.453125 357.3671875 503.3984375Q358.359375 501.34375 358.359375 498.375Q358.359375 495.375 357.3671875 493.3203125Q356.375 491.265625 354.6953125 490.2109375Q353.015625 489.15625 350.9375 489.15625Q348.84375 489.15625 347.15625 490.21875Q345.46875 491.28125 344.4765625 493.3359375Q343.484375 495.390625 343.484375 498.375Q343.484375 501.34375 344.4765625 503.390625Q345.46875 505.4375 347.15625 506.5Q348.84375 507.5625 350.9375 507.5625ZM365.625 516.53125V492.53125H368.34375V495.328125H368.65625Q368.953125 494.859375 369.484375 494.1484375Q370.015625 493.4375 371.015625 492.875Q372.015625 492.3125 373.71875 492.3125Q375.90625 492.3125 377.5703125 493.40625Q379.234375 494.5 380.1796875 496.5234375Q381.125 498.546875 381.125 501.3125Q381.125 504.09375 380.1875 506.125Q379.25 508.15625 377.5859375 509.265625Q375.921875 510.375 373.734375 510.375Q372.078125 510.375 371.0625 509.8046875Q370.046875 509.234375 369.5 508.5078125Q368.953125 507.78125 368.65625 507.296875H368.4375V516.53125ZM373.3125 507.859375Q374.953125 507.859375 376.0546875 506.9765625Q377.15625 506.09375 377.7109375 504.6015625Q378.265625 503.109375 378.265625 501.28125Q378.265625 499.46875 377.71875 498.0078125Q377.171875 496.546875 376.0703125 495.6875Q374.96875 494.828125 373.3125 494.828125Q371.703125 494.828125 370.609375 495.640625Q369.515625 496.453125 368.9609375 497.8984375Q368.40625 499.34375 368.40625 501.28125Q368.40625 503.21875 368.96875 504.703125Q369.53125 506.1875 370.6328125 507.0234375Q371.734375 507.859375 373.3125 507.859375ZM392.5625 510.375Q390.03125 510.375 388.1953125 509.25Q386.359375 508.125 385.3671875 506.109375Q384.375 504.09375 384.375 501.40625Q384.375 498.71875 385.34375 496.671875Q386.3125 494.625 388.0859375 493.46875Q389.859375 492.3125 392.234375 492.3125Q393.625 492.3125 394.9765625 492.7734375Q396.328125 493.234375 397.4296875 494.2578125Q398.53125 495.28125 399.1875 496.953125Q399.84375 498.625 399.84375 501.046875V502.21875H386.28125V499.84375H398.328125L397.015625 500.71875Q397.015625 499.0 396.4765625 497.6640625Q395.9375 496.328125 394.875 495.5703125Q393.8125 494.8125 392.234375 494.8125Q390.65625 494.8125 389.53125 495.5859375Q388.40625 496.359375 387.8125 497.6015625Q387.21875 498.84375 387.21875 500.265625V501.84375Q387.21875 503.78125 387.890625 505.1328125Q388.5625 506.484375 389.7734375 507.1796875Q390.984375 507.875 392.578125 507.875Q393.609375 507.875 394.453125 507.578125Q395.296875 507.28125 395.90625 506.6796875Q396.515625 506.078125 396.84375 505.1875L399.5625 505.9375Q399.15625 507.25 398.1875 508.25Q397.21875 509.25 395.7890625 509.8125Q394.359375 510.375 392.5625 510.375ZM406.6875 499.53125V510.0H403.875V492.53125H406.578125L406.59375 496.765625H406.203125Q407.0 494.34375 408.4765625 493.328125Q409.953125 492.3125 411.9375 492.3125Q413.703125 492.3125 415.03125 493.0390625Q416.359375 493.765625 417.1015625 495.2265625Q417.84375 496.6875 417.84375 498.90625V510.0H415.03125V499.140625Q415.03125 497.125 413.9765625 495.984375Q412.921875 494.84375 411.09375 494.84375Q409.84375 494.84375 408.84375 495.390625Q407.84375 495.9375 407.265625 496.984375Q406.6875 498.03125 406.6875 499.53125ZM432.78125 498.765625V501.359375H422.5625V498.765625ZM443.4375 510.375Q441.640625 510.375 440.2421875 509.8515625Q438.84375 509.328125 437.9375 508.296875Q437.03125 507.265625 436.71875 505.765625L439.390625 505.125Q439.765625 506.5625 440.8046875 507.234375Q441.84375 507.90625 443.40625 507.90625Q445.234375 507.90625 446.3203125 507.125Q447.40625 506.34375 447.40625 505.265625Q447.40625 504.359375 446.7734375 503.7578125Q446.140625 503.15625 444.84375 502.859375L441.9375 502.171875Q439.5625 501.609375 438.40625 500.4296875Q437.25 499.25 437.25 497.40625Q437.25 495.90625 438.09375 494.7578125Q438.9375 493.609375 440.3984375 492.9609375Q441.859375 492.3125 443.71875 492.3125Q445.515625 492.3125 446.7734375 492.8515625Q448.03125 493.390625 448.8203125 494.3359375Q449.609375 495.28125 450.0 496.515625L447.453125 497.171875Q447.09375 496.234375 446.2578125 495.46875Q445.421875 494.703125 443.734375 494.703125Q442.171875 494.703125 441.1328125 495.421875Q440.09375 496.140625 440.09375 497.234375Q440.09375 498.203125 440.796875 498.7890625Q441.5 499.375 443.03125 499.734375L445.671875 500.359375Q448.046875 500.921875 449.1875 502.1015625Q450.328125 503.28125 450.328125 505.078125Q450.328125 506.609375 449.4609375 507.8046875Q448.59375 509.0 447.0390625 509.6875Q445.484375 510.375 443.4375 510.375ZM461.5 510.375Q459.125 510.375 457.3359375 509.25Q455.546875 508.125 454.546875 506.09375Q453.546875 504.0625 453.546875 501.375Q453.546875 498.640625 454.546875 496.6015625Q455.546875 494.5625 457.3359375 493.4375Q459.125 492.3125 461.5 492.3125Q463.890625 492.3125 465.6875 493.4375Q467.484375 494.5625 468.484375 496.6015625Q469.484375 498.640625 469.484375 501.375Q469.484375 504.0625 468.484375 506.09375Q467.484375 508.125 465.6875 509.25Q463.890625 510.375 461.5 510.375ZM461.5 507.859375Q463.265625 507.859375 464.40625 506.953125Q465.546875 506.046875 466.09375 504.5703125Q466.640625 503.09375 466.640625 501.375Q466.640625 499.640625 466.09375 498.1484375Q465.546875 496.65625 464.40625 495.7421875Q463.265625 494.828125 461.5 494.828125Q459.75 494.828125 458.625 495.7421875Q457.5 496.65625 456.953125 498.140625Q456.40625 499.625 456.40625 501.375Q456.40625 503.09375 456.953125 504.5703125Q457.5 506.046875 458.625 506.953125Q459.75 507.859375 461.5 507.859375ZM479.5 510.21875Q477.734375 510.21875 476.3984375 509.4921875Q475.0625 508.765625 474.3203125 507.296875Q473.578125 505.828125 473.578125 503.625V492.53125H476.390625V503.390625Q476.390625 505.40625 477.453125 506.546875Q478.515625 507.6875 480.34375 507.6875Q481.59375 507.6875 482.5859375 507.140625Q483.578125 506.59375 484.15625 505.5390625Q484.734375 504.484375 484.734375 503.0V492.53125H487.5625V510.0H484.84375V505.765625H485.21875Q484.40625 508.21875 482.9140625 509.21875Q481.421875 510.21875 479.5 510.21875ZM492.5 510.0V492.53125H495.21875V495.21875H495.40625Q495.890625 493.890625 497.1328125 493.0859375Q498.375 492.28125 499.9375 492.28125Q500.25 492.28125 500.6796875 492.296875Q501.109375 492.3125 501.359375 492.328125V495.15625Q501.234375 495.125 500.734375 495.0625Q500.234375 495.0 499.671875 495.0Q498.421875 495.0 497.4296875 495.5234375Q496.4375 496.046875 495.875 496.9609375Q495.3125 497.875 495.3125 499.0625V510.0ZM511.65625 510.375Q509.28125 510.375 507.4921875 509.25Q505.703125 508.125 504.703125 506.09375Q503.703125 504.0625 503.703125 501.375Q503.703125 498.640625 504.703125 496.6015625Q505.703125 494.5625 507.4921875 493.4375Q509.28125 492.3125 511.65625 492.3125Q512.921875 492.3125 514.046875 492.640625Q515.171875 492.96875 516.1015625 493.5859375Q517.03125 494.203125 517.703125 495.1015625Q518.375 496.0 518.734375 497.140625L516.03125 497.90625Q515.84375 497.234375 515.453125 496.671875Q515.0625 496.109375 514.5078125 495.6953125Q513.953125 495.28125 513.234375 495.0546875Q512.515625 494.828125 511.65625 494.828125Q509.90625 494.828125 508.78125 495.7421875Q507.65625 496.65625 507.109375 498.140625Q506.5625 499.625 506.5625 501.375Q506.5625 503.09375 507.109375 504.5703125Q507.65625 506.046875 508.78125 506.953125Q509.90625 507.859375 511.65625 507.859375Q512.53125 507.859375 513.265625 507.625Q514.0 507.390625 514.5703125 506.9609375Q515.140625 506.53125 515.53125 505.9375Q515.921875 505.34375 516.109375 504.640625L518.796875 505.40625Q518.453125 506.578125 517.7734375 507.4921875Q517.09375 508.40625 516.15625 509.0546875Q515.21875 509.703125 514.078125 510.0390625Q512.9375 510.375 511.65625 510.375ZM530.171875 510.375Q527.640625 510.375 525.8046875 509.25Q523.96875 508.125 522.9765625 506.109375Q521.984375 504.09375 521.984375 501.40625Q521.984375 498.71875 522.953125 496.671875Q523.921875 494.625 525.6953125 493.46875Q527.46875 492.3125 529.84375 492.3125Q531.234375 492.3125 532.5859375 492.7734375Q533.9375 493.234375 535.0390625 494.2578125Q536.140625 495.28125 536.796875 496.953125Q537.453125 498.625 537.453125 501.046875V502.21875H523.890625V499.84375H535.9375L534.625 500.71875Q534.625 499.0 534.0859375 497.6640625Q533.546875 496.328125 532.484375 495.5703125Q531.421875 494.8125 529.84375 494.8125Q528.265625 494.8125 527.140625 495.5859375Q526.015625 496.359375 525.421875 497.6015625Q524.828125 498.84375 524.828125 500.265625V501.84375Q524.828125 503.78125 525.5 505.1328125Q526.171875 506.484375 527.3828125 507.1796875Q528.59375 507.875 530.1875 507.875Q531.21875 507.875 532.0625 507.578125Q532.90625 507.28125 533.515625 506.6796875Q534.125 506.078125 534.453125 505.1875L537.171875 505.9375Q536.765625 507.25 535.796875 508.25Q534.828125 509.25 533.3984375 509.8125Q531.96875 510.375 530.171875 510.375ZM550.828125 510.0V486.71875H555.046875L560.78125 501.40625Q560.984375 501.921875 561.2421875 502.6953125Q561.5 503.46875 561.7890625 504.375Q562.078125 505.28125 562.34375 506.1796875Q562.609375 507.078125 562.8125 507.84375H562.15625Q562.375 507.125 562.640625 506.2421875Q562.90625 505.359375 563.1953125 504.4453125Q563.484375 503.53125 563.75 502.734375Q564.015625 501.9375 564.21875 501.40625L569.875 486.71875H574.109375V510.0H571.1875V496.703125Q571.1875 495.984375 571.1953125 495.0625Q571.203125 494.140625 571.2265625 493.125Q571.25 492.109375 571.2734375 491.0625Q571.296875 490.015625 571.3125 489.03125H571.5625Q571.234375 490.109375 570.8671875 491.2265625Q570.5 492.34375 570.1484375 493.3828125Q569.796875 494.421875 569.484375 495.28125Q569.171875 496.140625 568.953125 496.703125L563.75 510.0H561.171875L555.890625 496.703125Q555.671875 496.15625 555.375 495.3203125Q555.078125 494.484375 554.7265625 493.4609375Q554.375 492.4375 554.0 491.3046875Q553.625 490.171875 553.234375 489.03125H553.515625Q553.546875 489.90625 553.5703125 490.921875Q553.59375 491.9375 553.609375 492.9765625Q553.625 494.015625 553.640625 494.9765625Q553.65625 495.9375 553.65625 496.703125V510.0ZM589.15625 510.3125Q586.171875 510.3125 583.8359375 508.8671875Q581.5 507.421875 580.1640625 504.7421875Q578.828125 502.0625 578.828125 498.375Q578.828125 494.671875 580.1640625 491.9921875Q581.5 489.3125 583.8359375 487.859375Q586.171875 486.40625 589.15625 486.40625Q590.921875 486.40625 592.4921875 486.921875Q594.0625 487.4375 595.3125 488.4296875Q596.5625 489.421875 597.3984375 490.8359375Q598.234375 492.25 598.546875 494.046875H595.578125Q595.328125 492.84375 594.7265625 491.9375Q594.125 491.03125 593.2578125 490.40625Q592.390625 489.78125 591.34375 489.46875Q590.296875 489.15625 589.15625 489.15625Q587.0625 489.15625 585.375 490.21875Q583.6875 491.28125 582.703125 493.3359375Q581.71875 495.390625 581.71875 498.375Q581.71875 501.34375 582.7109375 503.3984375Q583.703125 505.453125 585.390625 506.5078125Q587.078125 507.5625 589.15625 507.5625Q590.296875 507.5625 591.34375 507.2421875Q592.390625 506.921875 593.2578125 506.3046875Q594.125 505.6875 594.7265625 504.7734375Q595.328125 503.859375 595.578125 502.671875H598.546875Q598.25 504.453125 597.4140625 505.859375Q596.578125 507.265625 595.328125 508.265625Q594.078125 509.265625 592.5078125 509.7890625Q590.9375 510.3125 589.15625 510.3125ZM603.109375 510.0V486.71875H611.078125Q613.796875 486.71875 615.5546875 487.7109375Q617.3125 488.703125 618.1640625 490.375Q619.015625 492.046875 619.015625 494.125Q619.015625 496.203125 618.1640625 497.890625Q617.3125 499.578125 615.5625 500.578125Q613.8125 501.578125 611.09375 501.578125H605.453125V498.96875H610.953125Q612.796875 498.96875 613.921875 498.3359375Q615.046875 497.703125 615.5546875 496.6015625Q616.0625 495.5 616.0625 494.125Q616.0625 492.75 615.5546875 491.6640625Q615.046875 490.578125 613.9140625 489.953125Q612.78125 489.328125 610.921875 489.328125H606.078125V510.0ZM638.140625 510.375Q636.34375 510.375 634.9453125 509.8515625Q633.546875 509.328125 632.640625 508.296875Q631.734375 507.265625 631.421875 505.765625L634.09375 505.125Q634.46875 506.5625 635.5078125 507.234375Q636.546875 507.90625 638.109375 507.90625Q639.9375 507.90625 641.0234375 507.125Q642.109375 506.34375 642.109375 505.265625Q642.109375 504.359375 641.4765625 503.7578125Q640.84375 503.15625 639.546875 502.859375L636.640625 502.171875Q634.265625 501.609375 633.109375 500.4296875Q631.953125 499.25 631.953125 497.40625Q631.953125 495.90625 632.796875 494.7578125Q633.640625 493.609375 635.1015625 492.9609375Q636.5625 492.3125 638.421875 492.3125Q640.21875 492.3125 641.4765625 492.8515625Q642.734375 493.390625 643.5234375 494.3359375Q644.3125 495.28125 644.703125 496.515625L642.15625 497.171875Q641.796875 496.234375 640.9609375 495.46875Q640.125 494.703125 638.4375 494.703125Q636.875 494.703125 635.8359375 495.421875Q634.796875 496.140625 634.796875 497.234375Q634.796875 498.203125 635.5 498.7890625Q636.203125 499.375 637.734375 499.734375L640.375 500.359375Q642.75 500.921875 643.890625 502.1015625Q645.03125 503.28125 645.03125 505.078125Q645.03125 506.609375 644.1640625 507.8046875Q643.296875 509.0 641.7421875 509.6875Q640.1875 510.375 638.140625 510.375ZM656.4375 510.375Q653.90625 510.375 652.0703125 509.25Q650.234375 508.125 649.2421875 506.109375Q648.25 504.09375 648.25 501.40625Q648.25 498.71875 649.21875 496.671875Q650.1875 494.625 651.9609375 493.46875Q653.734375 492.3125 656.109375 492.3125Q657.5 492.3125 658.8515625 492.7734375Q660.203125 493.234375 661.3046875 494.2578125Q662.40625 495.28125 663.0625 496.953125Q663.71875 498.625 663.71875 501.046875V502.21875H650.15625V499.84375H662.203125L660.890625 500.71875Q660.890625 499.0 660.3515625 497.6640625Q659.8125 496.328125 658.75 495.5703125Q657.6875 494.8125 656.109375 494.8125Q654.53125 494.8125 653.40625 495.5859375Q652.28125 496.359375 651.6875 497.6015625Q651.09375 498.84375 651.09375 500.265625V501.84375Q651.09375 503.78125 651.765625 505.1328125Q652.4375 506.484375 653.6484375 507.1796875Q654.859375 507.875 656.453125 507.875Q657.484375 507.875 658.328125 507.578125Q659.171875 507.28125 659.78125 506.6796875Q660.390625 506.078125 660.71875 505.1875L663.4375 505.9375Q663.03125 507.25 662.0625 508.25Q661.09375 509.25 659.6640625 509.8125Q658.234375 510.375 656.4375 510.375ZM667.75 510.0V492.53125H670.46875V495.21875H670.65625Q671.140625 493.890625 672.3828125 493.0859375Q673.625 492.28125 675.1875 492.28125Q675.5 492.28125 675.9296875 492.296875Q676.359375 492.3125 676.609375 492.328125V495.15625Q676.484375 495.125 675.984375 495.0625Q675.484375 495.0 674.921875 495.0Q673.671875 495.0 672.6796875 495.5234375Q671.6875 496.046875 671.125 496.9609375Q670.5625 497.875 670.5625 499.0625V510.0ZM684.84375 510.0 678.171875 492.53125H681.25L684.96875 502.890625Q685.5625 504.5 685.9765625 506.1015625Q686.390625 507.703125 686.84375 509.203125H685.8125Q686.265625 507.703125 686.6796875 506.1015625Q687.09375 504.5 687.671875 502.890625L691.390625 492.53125H694.46875L687.796875 510.0ZM705.125 510.375Q702.59375 510.375 700.7578125 509.25Q698.921875 508.125 697.9296875 506.109375Q696.9375 504.09375 696.9375 501.40625Q696.9375 498.71875 697.90625 496.671875Q698.875 494.625 700.6484375 493.46875Q702.421875 492.3125 704.796875 492.3125Q706.1875 492.3125 707.5390625 492.7734375Q708.890625 493.234375 709.9921875 494.2578125Q711.09375 495.28125 711.75 496.953125Q712.40625 498.625 712.40625 501.046875V502.21875H698.84375V499.84375H710.890625L709.578125 500.71875Q709.578125 499.0 709.0390625 497.6640625Q708.5 496.328125 707.4375 495.5703125Q706.375 494.8125 704.796875 494.8125Q703.21875 494.8125 702.09375 495.5859375Q700.96875 496.359375 700.375 497.6015625Q699.78125 498.84375 699.78125 500.265625V501.84375Q699.78125 503.78125 700.453125 505.1328125Q701.125 506.484375 702.3359375 507.1796875Q703.546875 507.875 705.140625 507.875Q706.171875 507.875 707.015625 507.578125Q707.859375 507.28125 708.46875 506.6796875Q709.078125 506.078125 709.40625 505.1875L712.125 505.9375Q711.71875 507.25 710.75 508.25Q709.78125 509.25 708.3515625 509.8125Q706.921875 510.375 705.125 510.375ZM716.4375 510.0V492.53125H719.15625V495.21875H719.34375Q719.828125 493.890625 721.0703125 493.0859375Q722.3125 492.28125 723.875 492.28125Q724.1875 492.28125 724.6171875 492.296875Q725.046875 492.3125 725.296875 492.328125V495.15625Q725.171875 495.125 724.671875 495.0625Q724.171875 495.0 723.609375 495.0Q722.359375 495.0 721.3671875 495.5234375Q720.375 496.046875 719.8125 496.9609375Q719.25 497.875 719.25 499.0625V510.0ZM745.609375 492.53125V494.9375H735.328125V492.53125ZM738.765625 510.0V490.203125Q738.765625 488.6875 739.4765625 487.671875Q740.1875 486.65625 741.328125 486.140625Q742.46875 485.625 743.734375 485.625Q744.734375 485.625 745.390625 485.7890625Q746.046875 485.953125 746.359375 486.09375L745.578125 488.5Q745.359375 488.421875 745.0078125 488.328125Q744.65625 488.234375 744.0625 488.234375Q742.765625 488.234375 742.171875 488.8984375Q741.578125 489.5625 741.578125 490.828125V510.0ZM756.4375 510.375Q754.0625 510.375 752.2734375 509.25Q750.484375 508.125 749.484375 506.09375Q748.484375 504.0625 748.484375 501.375Q748.484375 498.640625 749.484375 496.6015625Q750.484375 494.5625 752.2734375 493.4375Q754.0625 492.3125 756.4375 492.3125Q758.828125 492.3125 760.625 493.4375Q762.421875 494.5625 763.421875 496.6015625Q764.421875 498.640625 764.421875 501.375Q764.421875 504.0625 763.421875 506.09375Q762.421875 508.125 760.625 509.25Q758.828125 510.375 756.4375 510.375ZM756.4375 507.859375Q758.203125 507.859375 759.34375 506.953125Q760.484375 506.046875 761.03125 504.5703125Q761.578125 503.09375 761.578125 501.375Q761.578125 499.640625 761.03125 498.1484375Q760.484375 496.65625 759.34375 495.7421875Q758.203125 494.828125 756.4375 494.828125Q754.6875 494.828125 753.5625 495.7421875Q752.4375 496.65625 751.890625 498.140625Q751.34375 499.625 751.34375 501.375Q751.34375 503.09375 751.890625 504.5703125Q752.4375 506.046875 753.5625 506.953125Q754.6875 507.859375 756.4375 507.859375ZM768.515625 510.0V492.53125H771.234375V495.21875H771.421875Q771.90625 493.890625 773.1484375 493.0859375Q774.390625 492.28125 775.953125 492.28125Q776.265625 492.28125 776.6953125 492.296875Q777.125 492.3125 777.375 492.328125V495.15625Q777.25 495.125 776.75 495.0625Q776.25 495.0 775.6875 495.0Q774.4375 495.0 773.4453125 495.5234375Q772.453125 496.046875 771.890625 496.9609375Q771.328125 497.875 771.328125 499.0625V510.0ZM792.875 486.71875V510.0H789.90625V486.71875ZM800.96875 499.53125V510.0H798.15625V492.53125H800.859375L800.875 496.765625H800.484375Q801.28125 494.34375 802.7578125 493.328125Q804.234375 492.3125 806.21875 492.3125Q807.984375 492.3125 809.3125 493.0390625Q810.640625 493.765625 811.3828125 495.2265625Q812.125 496.6875 812.125 498.90625V510.0H809.3125V499.140625Q809.3125 497.125 808.2578125 495.984375Q807.203125 494.84375 805.375 494.84375Q804.125 494.84375 803.125 495.390625Q802.125 495.9375 801.546875 496.984375Q800.96875 498.03125 800.96875 499.53125ZM824.171875 510.375Q821.796875 510.375 820.0078125 509.25Q818.21875 508.125 817.21875 506.09375Q816.21875 504.0625 816.21875 501.375Q816.21875 498.640625 817.21875 496.6015625Q818.21875 494.5625 820.0078125 493.4375Q821.796875 492.3125 824.171875 492.3125Q825.4375 492.3125 826.5625 492.640625Q827.6875 492.96875 828.6171875 493.5859375Q829.546875 494.203125 830.21875 495.1015625Q830.890625 496.0 831.25 497.140625L828.546875 497.90625Q828.359375 497.234375 827.96875 496.671875Q827.578125 496.109375 827.0234375 495.6953125Q826.46875 495.28125 825.75 495.0546875Q825.03125 494.828125 824.171875 494.828125Q822.421875 494.828125 821.296875 495.7421875Q820.171875 496.65625 819.625 498.140625Q819.078125 499.625 819.078125 501.375Q819.078125 503.09375 819.625 504.5703125Q820.171875 506.046875 821.296875 506.953125Q822.421875 507.859375 824.171875 507.859375Q825.046875 507.859375 825.78125 507.625Q826.515625 507.390625 827.0859375 506.9609375Q827.65625 506.53125 828.046875 505.9375Q828.4375 505.34375 828.625 504.640625L831.3125 505.40625Q830.96875 506.578125 830.2890625 507.4921875Q829.609375 508.40625 828.671875 509.0546875Q827.734375 509.703125 826.59375 510.0390625Q825.453125 510.375 824.171875 510.375ZM835.34375 510.0V492.53125H838.15625V510.0ZM836.765625 489.671875Q835.96875 489.671875 835.390625 489.125Q834.8125 488.578125 834.8125 487.8125Q834.8125 487.03125 835.390625 486.4921875Q835.96875 485.953125 836.765625 485.953125Q837.578125 485.953125 838.15625 486.4921875Q838.734375 487.03125 838.734375 487.8125Q838.734375 488.578125 838.15625 489.125Q837.578125 489.671875 836.765625 489.671875ZM849.640625 510.375Q847.46875 510.375 845.796875 509.265625Q844.125 508.15625 843.1875 506.125Q842.25 504.09375 842.25 501.3125Q842.25 498.546875 843.1953125 496.5234375Q844.140625 494.5 845.8125 493.40625Q847.484375 492.3125 849.65625 492.3125Q851.359375 492.3125 852.359375 492.875Q853.359375 493.4375 853.8984375 494.1484375Q854.4375 494.859375 854.71875 495.328125H854.9375V486.71875H857.75V510.0H855.03125V507.296875H854.71875Q854.4375 507.78125 853.8828125 508.5078125Q853.328125 509.234375 852.3203125 509.8046875Q851.3125 510.375 849.640625 510.375ZM850.0625 507.859375Q851.65625 507.859375 852.75 507.0234375Q853.84375 506.1875 854.40625 504.703125Q854.96875 503.21875 854.96875 501.28125Q854.96875 499.34375 854.4140625 497.8984375Q853.859375 496.453125 852.765625 495.640625Q851.671875 494.828125 850.0625 494.828125Q848.40625 494.828125 847.3046875 495.6875Q846.203125 496.546875 845.65625 498.0078125Q845.109375 499.46875 845.109375 501.28125Q845.109375 503.109375 845.6640625 504.6015625Q846.21875 506.09375 847.328125 506.9765625Q848.4375 507.859375 850.0625 507.859375ZM870.03125 510.375Q867.5 510.375 865.6640625 509.25Q863.828125 508.125 862.8359375 506.109375Q861.84375 504.09375 861.84375 501.40625Q861.84375 498.71875 862.8125 496.671875Q863.78125 494.625 865.5546875 493.46875Q867.328125 492.3125 869.703125 492.3125Q871.09375 492.3125 872.4453125 492.7734375Q873.796875 493.234375 874.8984375 494.2578125Q876.0 495.28125 876.65625 496.953125Q877.3125 498.625 877.3125 501.046875V502.21875H863.75V499.84375H875.796875L874.484375 500.71875Q874.484375 499.0 873.9453125 497.6640625Q873.40625 496.328125 872.34375 495.5703125Q871.28125 494.8125 869.703125 494.8125Q868.125 494.8125 867.0 495.5859375Q865.875 496.359375 865.28125 497.6015625Q864.6875 498.84375 864.6875 500.265625V501.84375Q864.6875 503.78125 865.359375 505.1328125Q866.03125 506.484375 867.2421875 507.1796875Q868.453125 507.875 870.046875 507.875Q871.078125 507.875 871.921875 507.578125Q872.765625 507.28125 873.375 506.6796875Q873.984375 506.078125 874.3125 505.1875L877.03125 505.9375Q876.625 507.25 875.65625 508.25Q874.6875 509.25 873.2578125 509.8125Q871.828125 510.375 870.03125 510.375ZM884.15625 499.53125V510.0H881.34375V492.53125H884.046875L884.0625 496.765625H883.671875Q884.46875 494.34375 885.9453125 493.328125Q887.421875 492.3125 889.40625 492.3125Q891.171875 492.3125 892.5 493.0390625Q893.828125 493.765625 894.5703125 495.2265625Q895.3125 496.6875 895.3125 498.90625V510.0H892.5V499.140625Q892.5 497.125 891.4453125 495.984375Q890.390625 494.84375 888.5625 494.84375Q887.3125 494.84375 886.3125 495.390625Q885.3125 495.9375 884.734375 496.984375Q884.15625 498.03125 884.15625 499.53125ZM907.125 492.53125V494.9375H898.09375V492.53125ZM900.71875 488.375H903.53125V505.46875Q903.53125 506.640625 904.0078125 507.1796875Q904.484375 507.71875 905.59375 507.71875Q905.859375 507.71875 906.2734375 507.65625Q906.6875 507.59375 907.03125 507.53125L907.609375 509.90625Q907.171875 510.0625 906.6171875 510.140625Q906.0625 510.21875 905.515625 510.21875Q903.25 510.21875 901.984375 509.0234375Q900.71875 507.828125 900.71875 505.6875ZM914.03125 486.71875V510.0H911.0625V486.71875ZM928.125 502.71875H931.21875L933.8125 506.125L934.46875 507.03125L938.34375 512.1875H935.25L932.71875 508.78125L932.0625 507.90625ZM929.09375 510.3125Q926.109375 510.3125 923.7734375 508.8671875Q921.4375 507.421875 920.09375 504.7421875Q918.75 502.0625 918.75 498.375Q918.75 494.671875 920.09375 491.9921875Q921.4375 489.3125 923.7734375 487.859375Q926.109375 486.40625 929.09375 486.40625Q932.078125 486.40625 934.40625 487.859375Q936.734375 489.3125 938.0703125 491.9921875Q939.40625 494.671875 939.40625 498.375Q939.40625 502.0625 938.0703125 504.7421875Q936.734375 507.421875 934.40625 508.8671875Q932.078125 510.3125 929.09375 510.3125ZM929.09375 507.5625Q931.171875 507.5625 932.8515625 506.5078125Q934.53125 505.453125 935.5234375 503.3984375Q936.515625 501.34375 936.515625 498.375Q936.515625 495.375 935.5234375 493.3203125Q934.53125 491.265625 932.8515625 490.2109375Q931.171875 489.15625 929.09375 489.15625Q927.0 489.15625 925.3125 490.21875Q923.625 491.28125 922.6328125 493.3359375Q921.640625 495.390625 921.640625 498.375Q921.640625 501.34375 922.6328125 503.390625Q923.625 505.4375 925.3125 506.5Q927.0 507.5625 929.09375 507.5625Z" fill="#AEB6E6"/>
  <rect x="556" y="548" width="56" height="8" rx="4" fill="#14B8A6"/>
  <rect x="624" y="548" width="56" height="8" rx="4" fill="#FFC107"/>
  <rect x="692" y="548" width="56" height="8" rx="4" fill="#636AF1"/>
</svg>
