<svg xmlns="http://www.w3.org/2000/svg" width="543" height="268" viewBox="0 0 543 268" fill="none">
  <g transform="translate(196.5,16) scale(0.2930)"><g transform="translate(37.6,14.5) scale(1.05)">
  <circle cx="92" cy="128" r="18" fill="#14B8A6"/>
  <circle cx="324" cy="128" r="18" fill="#14B8A6"/>
  <path d="M 74 154 H 110 V 314 H 128 V 332 H 56 V 314 H 74 Z" fill="#14B8A6"/>
  <path d="M 306 154 H 342 V 314 H 360 V 332 H 288 V 314 H 306 Z" fill="#14B8A6"/>
  <path d="M 16 240 C 100 160, 194 144, 400 240" fill="none" stroke="#636AF1" stroke-width="18" stroke-linecap="round"/>
  <circle cx="208" cy="171" r="15" fill="#FFC107"/>
  <path d="M 124 302 C 164 296, 196 302, 218 324 C 240 302, 272 296, 312 302" fill="none" stroke="#1F2233" stroke-width="13" stroke-linecap="round" stroke-linejoin="round"/>
  <path d="M 122 334 C 166 328, 198 334, 218 350 C 238 334, 270 328, 314 334" fill="none" stroke="#1F2233" stroke-width="13" stroke-linecap="round" stroke-linejoin="round"/>
  </g></g>
  <path d="M32.23715400695801 180.0V232.3828125H19.839580535888672V180.0ZM52.80356025695801 180.0V232.3828125H40.40598678588867V180.0ZM80.9355297088623 213.70215797424316H90.99588203430176L95.44242668151855 219.33556938171387L100.92685317993164 225.6496868133545L109.69904136657715 236.50311470031738H98.46304893493652L92.34023094177246 229.15968132019043L88.83301734924316 224.09151649475098ZM84.71836280822754 233.0859375Q77.68288993835449 233.0859375 72.02624416351318 229.9542202949524Q66.36959838867188 226.82250308990479 63.078969955444336 220.81992530822754Q59.7883415222168 214.8173475265503 59.7883415222168 206.2265625Q59.7883415222168 197.57390213012695 63.078969955444336 191.55796480178833Q66.36959838867188 185.5420274734497 72.02624416351318 182.41945123672485Q77.68288993835449 179.296875 84.71836280822754 179.296875Q91.75383567810059 179.296875 97.3929033279419 182.41945123672485Q103.0319709777832 185.5420274734497 106.3317403793335 191.55796480178833Q109.63150978088379 197.57390213012695 109.63150978088379 206.2265625Q109.63150978088379 214.84406661987305 106.3317403793335 220.8466444015503Q103.0319709777832 226.84922218322754 97.3929033279419 229.96757984161377Q91.75383567810059 233.0859375 84.71836280822754 233.0859375ZM84.71836280822754 222.1958770751953Q88.53913307189941 222.1958770751953 91.27638530731201 220.3572120666504Q94.01363754272461 218.51854705810547 95.48456525802612 214.95090436935425Q96.95549297332764 211.38326168060303 96.95549297332764 206.2265625Q96.95549297332764 201.02626991271973 95.48456525802612 197.44526767730713Q94.01363754272461 193.86426544189453 91.27638530731201 192.0256004333496Q88.53913307189941 190.1869354248047 84.71836280822754 190.1869354248047Q80.91587448120117 190.1869354248047 78.17440366744995 192.02981901168823Q75.43293285369873 193.87270259857178 73.94864559173584 197.45370483398438Q72.46435832977295 201.03470706939697 72.46435832977295 206.2265625Q72.46435832977295 211.38326168060303 73.94864559173584 214.94668579101562Q75.43293285369873 218.51010990142822 78.17440366744995 220.35299348831177Q80.91587448120117 222.1958770751953 84.71836280822754 222.1958770751953Z" fill="#14B8A6"/>
  <path d="M159.92812371253967 233.0859375Q153.13101768493652 233.0859375 147.79289603233337 229.8624597787857Q142.45477437973022 226.6389820575714 139.3919641971588 220.61601305007935Q136.3291540145874 214.59304404258728 136.3291540145874 206.2265625Q136.3291540145874 197.81859683990479 139.40145599842072 191.79246389865875Q142.47375798225403 185.76633095741272 147.81504356861115 182.53160297870636Q153.15632915496826 179.296875 159.92812371253967 179.296875Q164.06530451774597 179.296875 167.70608139038086 180.4855066537857Q171.34685826301575 181.6741383075714 174.21630907058716 183.96034705638885Q177.08575987815857 186.2465558052063 178.97611105442047 189.51995050907135Q180.86646223068237 192.7933452129364 181.53162002563477 196.9628713130951H173.45980167388916Q172.9605803489685 194.4393482208252 171.72729420661926 192.52051520347595Q170.49400806427002 190.6016821861267 168.69154107570648 189.27136659622192Q166.88907408714294 187.94105100631714 164.67598235607147 187.2695653438568Q162.462890625 186.59807968139648 160.0040581226349 186.59807968139648Q155.50194025039673 186.59807968139648 151.94236028194427 188.8716391324997Q148.38278031349182 191.1451985836029 146.33878898620605 195.52145862579346Q144.2947976589203 199.897718667984 144.2947976589203 206.2265625Q144.2947976589203 212.56454515457153 146.35953104496002 216.93764126300812Q148.42426443099976 221.3107373714447 151.97751653194427 223.5477350950241Q155.5307686328888 225.78473281860352 159.99140238761902 225.78473281860352Q162.45023488998413 225.78473281860352 164.66016268730164 225.09883296489716Q166.87009048461914 224.4129331111908 168.6788853406906 223.09703171253204Q170.48768019676208 221.7811303138733 171.72729420661926 219.84788310527802Q172.96690821647644 217.91463589668274 173.47245740890503 215.4199411869049H181.54427576065063Q180.95224142074585 219.30752420425415 179.12200498580933 222.52853751182556Q177.2917685508728 225.74955081939697 174.4507931470871 228.12610816955566Q171.6098177433014 230.50266551971436 167.9310736656189 231.79430150985718Q164.2523295879364 233.0859375 159.92812371253967 233.0859375ZM206.90178966522217 233.20125102996826Q201.36820363998413 233.20125102996826 197.24473106861115 230.6668370962143Q193.12125849723816 228.13242316246033 190.84278309345245 223.5652745962143Q188.56430768966675 218.99812602996826 188.56430768966675 212.95125102996826Q188.56430768966675 206.81789088249207 190.84278309345245 202.236328125Q193.12125849723816 197.65476536750793 197.24473106861115 195.12035143375397Q201.36820363998413 192.5859375 206.90178966522217 192.5859375Q212.46420407295227 192.5859375 216.59576296806335 195.12035143375397Q220.72732186317444 197.65476536750793 223.00579726696014 202.236328125Q225.28427267074585 206.81789088249207 225.28427267074585 212.95125102996826Q225.28427267074585 218.99812602996826 223.00579726696014 223.5652745962143Q220.72732186317444 228.13242316246033 216.59576296806335 230.6668370962143Q212.46420407295227 233.20125102996826 206.90178966522217 233.20125102996826ZM206.90178966522217 226.66152119636536Q210.48844599723816 226.66152119636536 212.83021295070648 224.78065538406372Q215.1719799041748 222.89978957176208 216.3075306415558 219.780015707016Q217.44308137893677 216.6602418422699 217.44308137893677 212.9385952949524Q217.44308137893677 209.1817924976349 216.3075306415558 206.04268205165863Q215.1719799041748 202.90357160568237 212.83021295070648 201.01461946964264Q210.48844599723816 199.1256673336029 206.90178966522217 199.1256673336029Q203.3376338481903 199.1256673336029 201.02153134346008 201.01461946964264Q198.70542883872986 202.90357160568237 197.56987810134888 206.0282678604126Q196.4343273639679 209.15296411514282 196.4343273639679 212.9385952949524Q196.4343273639679 216.6602418422699 197.56987810134888 219.780015707016Q198.70542883872986 222.89978957176208 201.02153134346008 224.78065538406372Q203.3376338481903 226.66152119636536 206.90178966522217 226.66152119636536ZM233.86243629455566 232.3828125V193.078125H241.2297306060791L241.42308354377747 202.1962366104126H240.84230589866638Q241.67621111869812 198.8514769077301 243.43226516246796 196.69640135765076Q245.1883192062378 194.5413258075714 247.5451934337616 193.4771465063095Q249.9020676612854 192.4129672050476 252.46495699882507 192.4129672050476Q256.73503589630127 192.4129672050476 259.37351310253143 195.0686695575714Q262.0119903087616 197.72437191009521 262.937296628952 202.45638513565063H261.96698927879333Q262.72706508636475 199.2248339653015 264.6346414089203 196.98222076892853Q266.54221773147583 194.73960757255554 269.21549820899963 193.57628738880157Q271.88877868652344 192.4129672050476 274.97971773147583 192.4129672050476Q278.4531526565552 192.4129672050476 281.2719805240631 193.92116904258728Q284.09080839157104 195.42937088012695 285.7480745315552 198.414488196373Q287.4053406715393 201.39960551261902 287.4053406715393 205.875V232.3828125H279.67242908477783V206.66458439826965Q279.67242908477783 202.7144157886505 277.4779679775238 200.95273339748383Q275.2835068702698 199.19105100631714 272.29662466049194 199.19105100631714Q269.8750534057617 199.19105100631714 268.11090660095215 200.21937453746796Q266.3467597961426 201.24769806861877 265.3950766324997 203.05157053470612Q264.4433934688568 204.85544300079346 264.4433934688568 207.2123236656189V232.3828125H256.82438349723816V206.14567351341248Q256.82438349723816 203.00269961357117 254.80289268493652 201.09687530994415Q252.7814018726349 199.19105100631714 249.65037775039673 199.19105100631714Q247.51076245307922 199.19105100631714 245.66329443454742 200.1905461549759Q243.81582641601562 201.19004130363464 242.70558714866638 203.1380556821823Q241.59534788131714 205.08607006072998 241.59534788131714 207.9618616104126V232.3828125ZM297.81165504455566 232.3828125V193.078125H305.1789493560791L305.37230229377747 202.1962366104126H304.7915246486664Q305.6254298686981 198.8514769077301 307.38148391246796 196.69640135765076Q309.1375379562378 194.5413258075714 311.4944121837616 193.4771465063095Q313.8512864112854 192.4129672050476 316.4141757488251 192.4129672050476Q320.68425464630127 192.4129672050476 323.32273185253143 195.0686695575714Q325.9612090587616 197.72437191009521 326.886515378952 202.45638513565063H325.91620802879333Q326.67628383636475 199.2248339653015 328.5838601589203 196.98222076892853Q330.49143648147583 194.73960757255554 333.16471695899963 193.57628738880157Q335.83799743652344 192.4129672050476 338.92893648147583 192.4129672050476Q342.4023714065552 192.4129672050476 345.2211992740631 193.92116904258728Q348.04002714157104 195.42937088012695 349.6972932815552 198.414488196373Q351.3545594215393 201.39960551261902 351.3545594215393 205.875V232.3828125H343.62164783477783V206.66458439826965Q343.62164783477783 202.7144157886505 341.4271867275238 200.95273339748383Q339.2327256202698 199.19105100631714 336.24584341049194 199.19105100631714Q333.8242721557617 199.19105100631714 332.06012535095215 200.21937453746796Q330.2959785461426 201.24769806861877 329.3442953824997 203.05157053470612Q328.3926122188568 204.85544300079346 328.3926122188568 207.2123236656189V232.3828125H320.77360224723816V206.14567351341248Q320.77360224723816 203.00269961357117 318.7521114349365 201.09687530994415Q316.7306206226349 199.19105100631714 313.59959650039673 199.19105100631714Q311.4599812030792 199.19105100631714 309.6125131845474 200.1905461549759Q307.7650451660156 201.19004130363464 306.6548058986664 203.1380556821823Q305.54456663131714 205.08607006072998 305.54456663131714 207.9618616104126V232.3828125ZM375.15469908714294 232.875Q371.15040349960327 232.875 368.12872445583344 231.1927753686905Q365.1070454120636 229.51055073738098 363.43395960330963 226.19953536987305Q361.76087379455566 222.8885200023651 361.76087379455566 218.05171823501587V193.078125H369.49378538131714V217.08775162696838Q369.49378538131714 221.3318259716034 371.71988582611084 223.73687160015106Q373.94598627090454 226.14191722869873 377.7998249530792 226.14191722869873Q380.4224889278412 226.14191722869873 382.480894446373 224.99687469005585Q384.5392999649048 223.85183215141296 385.7325074672699 221.65280163288116Q386.925714969635 219.45377111434937 386.925714969635 216.36704206466675V193.078125H394.68745493888855V232.3828125H387.28571033477783L387.23508739471436 222.76055073738098H388.00290298461914Q386.2633681297302 228.09024596214294 382.96922492980957 230.48262298107147Q379.6750817298889 232.875 375.15469908714294 232.875ZM412.80628538131714 209.09389543533325V232.3828125H405.07337379455566V193.078125H412.4462900161743L412.52574133872986 202.70038676261902H411.729097366333Q413.43980383872986 197.4283483028412 416.70511865615845 195.0071429014206Q419.97043347358704 192.5859375 424.60612964630127 192.5859375Q428.6167531013489 192.5859375 431.6208540201187 194.2681621313095Q434.62495493888855 195.95038676261902 436.2980407476425 199.24698793888092Q437.9711265563965 202.54358911514282 437.9711265563965 207.40921926498413V232.3828125H430.238214969635V208.37318587303162Q430.238214969635 204.1291115283966 428.02652871608734 201.72406589984894Q425.8148424625397 199.31902027130127 421.961003780365 199.31902027130127Q419.34466767311096 199.31902027130127 417.26868402957916 200.46406280994415Q415.19270038604736 201.60910534858704 413.99949288368225 203.79055774211884Q412.80628538131714 205.97201013565063 412.80628538131714 209.09389543533325ZM448.38587379455566 232.3828125V193.078125H456.11878538131714V232.3828125ZM452.27483010292053 187.08115410804749Q450.28569746017456 187.08115410804749 448.85203099250793 185.73011888836967Q447.4183645248413 184.37908366869186 447.4183645248413 182.48763436114294Q447.4183645248413 180.5575840473175 448.85203099250793 179.22446393966675Q450.28569746017456 177.891343832016 452.27483010292053 177.891343832016Q454.29098316601346 177.891343832016 455.72555361475264 179.22378595386232Q457.1601240634918 180.55622807570865 457.1601240634918 182.4873036146164Q457.1601240634918 184.37975764274597 455.72555361475264 185.73045587539673Q454.29098316601346 187.08115410804749 452.27483010292053 187.08115410804749ZM483.34941244125366 193.078125V199.36543321609497H462.029296875V193.078125ZM467.7710223197937 183.7265625H475.5039339065552V221.75087714195251Q475.5039339065552 224.13448119163513 476.497101187706 225.23979806900024Q477.4902684688568 226.34511494636536 479.79019832611084 226.34511494636536Q480.3941824436188 226.34511494636536 481.37644600868225 226.2013260126114Q482.3587095737457 226.05753707885742 483.06254053115845 225.91691207885742L484.4329283237457 232.1149241924286Q483.1891107559204 232.5234375 481.7797032594681 232.7087105512619Q480.37029576301575 232.8939836025238 479.019597530365 232.8939836025238Q473.6498429775238 232.8939836025238 470.71043264865875 230.14441573619843Q467.7710223197937 227.39484786987305 467.7710223197937 222.388605594635ZM490.5178220272064 246.5135200023651 492.4007799625397 240.20652222633362 493.2775683403015 240.43925428390503Q495.2807686328888 240.95042538642883 496.8817834854126 240.7155818939209Q498.4827983379364 240.48073840141296 499.6598331928253 239.2270631790161Q500.83686804771423 237.97338795661926 501.5392999649048 235.44564199447632L502.3922016620636 232.56211066246033L487.46274518966675 193.078125H495.812296628952L503.5909924507141 215.418555021286Q504.8889627456665 219.1444115638733 505.74923837184906 222.82210314273834Q506.6095139980316 226.4997947216034 507.6100616455078 230.15322089195251H505.24545407295227Q506.24600172042847 226.4997947216034 507.18080627918243 222.80136108398438Q508.1156108379364 219.10292744636536 509.40373635292053 215.418555021286L517.3350069522858 193.078125H525.6177628040314L508.5458800792694 237.84259486198425Q507.3505675792694 240.98415684700012 505.6142030954361 243.10688710212708Q503.8778386116028 245.22961735725403 501.4763227701187 246.294496178627Q499.07480692863464 247.359375 495.9051353931427 247.359375Q494.0847501754761 247.359375 492.65178966522217 247.0942976474762Q491.21882915496826 246.8292202949524 490.5178220272064 246.5135200023651Z" fill="#1F2233"/>
</svg>
