<svg xmlns="http://www.w3.org/2000/svg" width="794" height="168" viewBox="0 0 794 168" fill="none">
  <g transform="translate(14,14) scale(0.2734)"><g transform="translate(37.6,14.5) scale(1.05)">
  <circle cx="92" cy="128" r="18" fill="#14B8A6"/>
  <circle cx="324" cy="128" r="18" fill="#14B8A6"/>
  <path d="M 74 154 H 110 V 314 H 128 V 332 H 56 V 314 H 74 Z" fill="#14B8A6"/>
  <path d="M 306 154 H 342 V 314 H 360 V 332 H 288 V 314 H 306 Z" fill="#14B8A6"/>
  <path d="M 16 240 C 100 160, 194 144, 400 240" fill="none" stroke="#636AF1" stroke-width="18" stroke-linecap="round"/>
  <circle cx="208" cy="171" r="15" fill="#FFC107"/>
  <path d="M 124 302 C 164 296, 196 302, 218 324 C 240 302, 272 296, 312 302" fill="none" stroke="#E8EBF5" stroke-width="13" stroke-linecap="round" stroke-linejoin="round"/>
  <path d="M 122 334 C 166 328, 198 334, 218 350 C 238 334, 270 328, 314 334" fill="none" stroke="#E8EBF5" stroke-width="13" stroke-linecap="round" stroke-linejoin="round"/>
  </g></g>
  <path d="M203.22817707061768 53.443359375V114.556640625H188.76434135437012V53.443359375ZM227.22231769561768 53.443359375V114.556640625H212.75848197937012V53.443359375ZM260.04294872283936 92.76254367828369H271.78002643585205L276.967661857605 99.33485698699951L283.3661594390869 106.70132732391357L293.60037899017334 119.36365985870361H280.4917211532593L273.34843349456787 110.79632091522217L269.2566843032837 104.88346195220947ZM264.45625400543213 115.376953125Q256.2482023239136 115.376953125 249.64878225326538 111.72328305244446Q243.0493621826172 108.06961297988892 239.21029567718506 101.06660556793213Q235.37122917175293 94.06359815597534 235.37122917175293 84.041015625Q235.37122917175293 73.94624519348145 239.21029567718506 66.92765164375305Q243.0493621826172 59.90905809402466 249.64878225326538 56.26605248451233Q256.2482023239136 52.623046875 264.45625400543213 52.623046875Q272.6643056869507 52.623046875 279.2432179450989 56.26605248451233Q285.82213020324707 59.90905809402466 289.6718611717224 66.92765164375305Q293.52159214019775 73.94624519348145 293.52159214019775 84.041015625Q293.52159214019775 94.09477043151855 289.6718611717224 101.09777784347534Q285.82213020324707 108.10078525543213 279.2432179450989 111.73886919021606Q272.6643056869507 115.376953125 264.45625400543213 115.376953125ZM264.45625400543213 102.67188262939453Q268.9138193130493 102.67188262939453 272.107280254364 100.52677345275879Q275.3007411956787 98.38166427612305 277.01682353019714 94.21941447257996Q278.7329058647156 90.05716466903687 278.7329058647156 84.041015625Q278.7329058647156 77.97400760650635 277.01682353019714 73.79617166519165Q275.3007411956787 69.61833572387695 272.107280254364 67.47322654724121Q268.9138193130493 65.32811737060547 264.45625400543213 65.32811737060547Q260.02001762390137 65.32811737060547 256.8216350078583 67.4781482219696Q253.62325239181519 69.62817907333374 251.89158391952515 73.80601501464844Q250.1599154472351 77.98385095596313 250.1599154472351 84.041015625Q250.1599154472351 90.05716466903687 251.89158391952515 94.21449279785156Q253.62325239181519 98.37182092666626 256.8216350078583 100.5218517780304Q260.02001762390137 102.67188262939453 264.45625400543213 102.67188262939453Z" fill="#14B8A6"/>
  <path d="M352.20097506046295 115.376953125Q344.2710180282593 115.376953125 338.0432094335556 111.61622911691666Q331.81540083885193 107.85550510883331 328.2421222925186 100.8287079334259Q324.6688437461853 93.8019107580185 324.6688437461853 84.041015625Q324.6688437461853 74.23172235488892 328.2531960606575 67.20123392343521Q331.8375483751297 60.170745491981506 338.06904822587967 56.39689618349075Q344.30054807662964 52.623046875 352.20097506046295 52.623046875Q357.0276859998703 52.623046875 361.27525901794434 54.00978380441666Q365.5228320360184 55.39652073383331 368.8705246448517 58.06376427412033Q372.218217253685 60.73100781440735 374.4236269593239 64.54996830224991Q376.62903666496277 68.36892879009247 377.4050540924072 73.23337590694427H367.98793268203735Q367.40550780296326 70.2892656326294 365.9666739702225 68.05062711238861Q364.5278401374817 65.81198859214783 362.42496198415756 64.25995373725891Q360.32208383083344 62.707918882369995 357.7401434779167 61.92451894283295Q355.158203125 61.1411190032959 352.28956520557404 61.1411190032959Q347.0370943546295 61.1411190032959 342.88425105810165 63.79360502958298Q338.7314077615738 66.44609105587006 336.34675121307373 71.55172777175903Q333.96209466457367 76.65736448764801 333.96209466457367 84.041015625Q333.96209466457367 91.43532872200012 336.37095028162 96.5372741818428Q338.7798058986664 101.63921964168549 342.92526668310165 104.2490503191948Q347.0707274675369 106.8588809967041 352.27480018138885 106.8588809967041Q355.1434381008148 106.8588809967041 357.72168719768524 106.05866450071335Q360.29993629455566 105.2584480047226 362.4101969599724 103.72322970628738Q364.5204576253891 102.18801140785217 365.9666739702225 99.93255633115768Q367.41289031505585 97.6771012544632 368.00269770622253 94.76662409305573H377.4198191165924Q376.7291123867035 99.30213761329651 374.5938365459442 103.05998647212982Q372.45856070518494 106.81783533096313 369.1440894007683 109.59048557281494Q365.8296180963516 112.36313581466675 361.53775000572205 113.87004446983337Q357.24588191509247 115.376953125 352.20097506046295 115.376953125ZM407.00358533859253 115.51148557662964Q400.5477349758148 115.51148557662964 395.73701697587967 112.55466932058334Q390.9262989759445 109.59785306453705 388.26807767152786 104.26951307058334Q385.6098563671112 98.94117307662964 385.6098563671112 91.88648557662964Q385.6098563671112 84.73089873790741 388.26807767152786 79.3857421875Q390.9262989759445 74.04058563709259 395.73701697587967 71.0837693810463Q400.5477349758148 68.126953125 407.00358533859253 68.126953125Q413.49306881427765 68.126953125 418.3132208585739 71.0837693810463Q423.1333729028702 74.04058563709259 425.79159420728683 79.3857421875Q428.4498155117035 84.73089873790741 428.4498155117035 91.88648557662964Q428.4498155117035 98.94117307662964 425.79159420728683 104.26951307058334Q423.1333729028702 109.59785306453705 418.3132208585739 112.55466932058334Q413.49306881427765 115.51148557662964 407.00358533859253 115.51148557662964ZM407.00358533859253 107.88180077075958Q411.1880177259445 107.88180077075958 413.92007917165756 105.68745732307434Q416.6521406173706 103.4931138753891 417.97694981098175 99.85337769985199Q419.3017590045929 96.21364152431488 419.3017590045929 91.87172055244446Q419.3017590045929 87.48878395557404 417.97694981098175 83.8264884352684Q416.6521406173706 80.16419291496277 413.92007917165756 77.96041542291641Q411.1880177259445 75.75663793087006 407.00358533859253 75.75663793087006Q402.84540355205536 75.75663793087006 400.14328396320343 77.96041542291641Q397.4411643743515 80.16419291496277 396.11635518074036 83.8096718788147Q394.7915459871292 87.45515084266663 394.7915459871292 91.87172055244446Q394.7915459871292 96.21364152431488 396.11635518074036 99.85337769985199Q397.4411643743515 103.4931138753891 400.14328396320343 105.68745732307434Q402.84540355205536 107.88180077075958 407.00358533859253 107.88180077075958ZM438.45767307281494 114.556640625V68.701171875H447.0528497695923L447.27842819690704 79.3389687538147H446.6008542776108Q447.57374370098114 75.43674910068512 449.6224734187126 72.92249429225922Q451.6712031364441 70.40823948383331 454.42088973522186 69.16669696569443Q457.17057633399963 67.92515444755554 460.1606138944626 67.92515444755554Q465.1423726081848 67.92515444755554 468.22059601545334 71.02347385883331Q471.29881942272186 74.12179327011108 472.37834346294403 79.64247536659241H471.2463182210922Q472.13307332992554 75.87233233451843 474.35857903957367 73.25595027208328Q476.5840847492218 70.63956820964813 479.7029119729996 69.28236132860184Q482.82173919677734 67.92515444755554 486.4278347492218 67.92515444755554Q490.4801754951477 67.92515444755554 493.7688080072403 69.6847232580185Q497.0574405193329 71.44429206848145 498.9909176826477 74.92692893743515Q500.9243948459625 78.40956580638885 500.9243948459625 83.630859375V114.556640625H491.90266466140747V84.55204117298126Q491.90266466140747 79.9435111284256 489.34246003627777 77.8882150053978Q486.78225541114807 75.83291888237 483.2975594997406 75.83291888237Q480.4723930358887 75.83291888237 478.41422176361084 77.03262966871262Q476.356050491333 78.23234045505524 475.245753467083 80.33685833215714Q474.13545644283295 82.44137620925903 474.13545644283295 85.19107031822205V114.556640625H465.2466114759445V83.94664514064789Q465.2466114759445 80.2798422574997 462.8882055282593 78.05638056993484Q460.52979958057404 75.83291888237 456.8769381046295 75.83291888237Q454.3807202577591 75.83291888237 452.2253409028053 76.9989965558052Q450.06996154785156 78.16507422924042 448.7746824026108 80.43775767087936Q447.47940325737 82.71044111251831 447.47940325737 86.0655312538147V114.556640625ZM513.0650949478149 114.556640625V68.701171875H521.6602716445923L521.885850071907 79.3389687538147H521.2082761526108Q522.1811655759811 75.43674910068512 524.2298952937126 72.92249429225922Q526.2786250114441 70.40823948383331 529.0283116102219 69.16669696569443Q531.7779982089996 67.92515444755554 534.7680357694626 67.92515444755554Q539.7497944831848 67.92515444755554 542.8280178904533 71.02347385883331Q545.9062412977219 74.12179327011108 546.985765337944 79.64247536659241H545.8537400960922Q546.7404952049255 75.87233233451843 548.9660009145737 73.25595027208328Q551.1915066242218 70.63956820964813 554.3103338479996 69.28236132860184Q557.4291610717773 67.92515444755554 561.0352566242218 67.92515444755554Q565.0875973701477 67.92515444755554 568.3762298822403 69.6847232580185Q571.6648623943329 71.44429206848145 573.5983395576477 74.92692893743515Q575.5318167209625 78.40956580638885 575.5318167209625 83.630859375V114.556640625H566.5100865364075V84.55204117298126Q566.5100865364075 79.9435111284256 563.9498819112778 77.8882150053978Q561.3896772861481 75.83291888237 557.9049813747406 75.83291888237Q555.0798149108887 75.83291888237 553.0216436386108 77.03262966871262Q550.963472366333 78.23234045505524 549.853175342083 80.33685833215714Q548.742878317833 82.44137620925903 548.742878317833 85.19107031822205V114.556640625H539.8540333509445V83.94664514064789Q539.8540333509445 80.2798422574997 537.4956274032593 78.05638056993484Q535.137221455574 75.83291888237 531.4843599796295 75.83291888237Q528.9881421327591 75.83291888237 526.8327627778053 76.9989965558052Q524.6773834228516 78.16507422924042 523.3821042776108 80.43775767087936Q522.08682513237 82.71044111251831 522.08682513237 86.0655312538147V114.556640625ZM603.2986463308334 115.130859375Q598.6269681453705 115.130859375 595.101675927639 113.16826397180557Q591.5763837099075 111.20566856861115 589.6244502663612 107.34281730651855Q587.6725168228149 103.47996604442596 587.6725168228149 97.83703064918518V68.701171875H596.69424700737V96.71240293979645Q596.69424700737 101.66382300853729 599.2913641929626 104.46970957517624Q601.8884813785553 107.27559614181519 606.3846265077591 107.27559614181519Q609.4444011449814 107.27559614181519 611.8458742499352 105.93971318006516Q614.2473473548889 104.60383021831512 615.6394227743149 102.03829461336136Q617.0314981937408 99.47275900840759 617.0314981937408 95.8715751171112V68.701171875H626.0868614912033V114.556640625H617.4514927864075L617.3924326896667 103.33066856861115H618.2882175445557Q616.2587602138519 109.54864633083344 612.4155931472778 112.33975285291672Q608.5724260807037 115.130859375 603.2986463308334 115.130859375ZM647.22549700737 87.3862373828888V114.556640625H638.2037668228149V68.701171875H646.8055024147034L646.8981956243515 79.92714393138885H645.9687776565552Q647.9646018743515 73.77643239498138 651.7741358280182 70.95169275999069Q655.5836697816849 68.126953125 660.9919819831848 68.126953125Q665.6710426807404 68.126953125 669.1758270859718 70.08954852819443Q672.6806114912033 72.05214393138885 674.6325449347496 75.89817863702774Q676.5844783782959 79.74421334266663 676.5844783782959 85.42078185081482V114.556640625H667.5627481937408V86.54540956020355Q667.5627481937408 81.59398949146271 664.9824475646019 78.78810292482376Q662.402146935463 75.98221635818481 657.9060018062592 75.98221635818481Q654.8536096811295 75.98221635818481 652.4316287636757 77.31809931993484Q650.0096478462219 78.65398228168488 648.617572426796 81.19901007413864Q647.22549700737 83.74403786659241 647.22549700737 87.3862373828888ZM688.7350168228149 114.556640625V68.701171875H697.75674700737V114.556640625ZM693.2721325159073 61.70470583438873Q690.951477766037 61.70470583438873 689.2788668870926 60.128498078097955Q687.6062560081482 58.55229032180718 687.6062560081482 56.3455994630001Q687.6062560081482 54.09387409687042 689.2788668870926 52.538567304611206Q690.951477766037 50.98326051235199 693.2721325159073 50.98326051235199Q695.6243110895157 50.98326051235199 697.2979766130447 52.537776321172714Q698.9716421365738 54.09229212999344 698.9716421365738 56.34521359205246Q698.9716421365738 58.5530766248703 697.2979766130447 60.12889122962952Q695.6243110895157 61.70470583438873 693.2721325159073 61.70470583438873ZM729.5258119106293 68.701171875V76.03636479377747H704.65234375V68.701171875ZM711.3510234355927 57.791015625H720.3727536201477V102.15271604061127Q720.3727536201477 104.93358743190765 721.5314487814903 106.22312378883362Q722.690143942833 107.51266014575958 725.3733954429626 107.51266014575958Q726.0780435800552 107.51266014575958 727.224017739296 107.34490638971329Q728.3699918985367 107.17715263366699 729.1911280155182 107.01309013366699L730.7899137735367 114.24410426616669Q729.3387932777405 114.720703125 727.6944845318794 114.93685501813889Q726.0501757860184 115.15300691127777 724.4743611812592 115.15300691127777Q718.2096475362778 115.15300691127777 714.7803354859352 111.94517773389816Q711.3510234355927 108.73734855651855 711.3510234355927 102.89673256874084ZM737.8889564275742 131.04246604442596 740.085740685463 123.68430197238922 741.1086604595184 123.95582270622253Q743.4457274675369 124.5521889925003 745.3135781288147 124.27820491790771Q747.1814287900925 124.00422084331512 748.5546361207962 122.5415997505188Q749.9278434514999 121.07897865772247 750.7473473548889 118.12994170188904L751.7423993349075 114.76582181453705L734.3247001171112 68.701171875H744.065843462944L753.1409885883331 94.76500689983368Q754.6552872657776 99.11183953285217 755.6589421629906 103.40247970819473Q756.6625970602036 107.69311988353729 757.8299026489258 111.95545041561127H755.0711938142776Q756.2384994029999 107.69311988353729 757.3291047215462 103.37828063964844Q758.4197100400925 99.06344139575958 759.9225231409073 94.76500689983368L769.1756721735001 68.701171875H778.8388873338699L758.9216908216476 120.92638671398163Q757.5271595716476 124.59154236316681 755.5014010071754 127.06806099414825Q753.4756424427032 129.5445796251297 750.6738739609718 130.78693825006485Q747.8721054792404 132.029296875 744.1741553544998 132.029296875Q742.0503726005554 132.029296875 740.3785853385925 131.72003996372223Q738.7067980766296 131.41078305244446 737.8889564275742 131.04246604442596Z" fill="#E8EBF5"/>
</svg>
